# xmcd CD database file
# Copyright (C) 1995 Ti Kan
#
# Track frame offsets:
#	150
#	12787
#	24507
#	42346
#	64679
#	85363
#	96288
#	109691
#	124587
#	136299
#	150261
#	165192
#	177428
#	194254
#	210245
#	224299
#	238251
#	253130
#	268059
#	280347
#
# Disc length: 3904 seconds
#
# Revision: 1
# Processed by: cddbd v1.4PL0 Copyright (c) Steve Scherf et al.
# Submitted via: NotifyCDPlayer(CDDB) 1.60beta5_freedb
#
DISCID=120f3e14
DTITLE=Waylon Jennings - The Journey: Six Strings Away Vol. 5
DYEAR=1900
DGENRE=
TTITLE0=Come Early Mornin'
TTITLE1=You Can Have Her
TTITLE2=My God And I
TTITLE3=Frisco Depot (San Fransisco Depot)
TTITLE4=Me And Bobby McGee
TTITLE5=Black Rose
TTITLE6=Pretend I Never Happened
TTITLE7=Delta Dawn
TTITLE8=Never Been To Spain
TTITLE9=Laid Back Country Picker
TTITLE10=Good Time Charlie's Got The Blues
TTITLE11=Willy, The Wandering Gypsy
TTITLE12=San Fransisco Mabel Joy
TTITLE13=Lonesome, On'ry And Mean
TTITLE14=Freedom To Stay
TTITLE15=Lisa's Only Seven
TTITLE16=The Last One To Leave Seattle
TTITLE17=About That Woman
TTITLE18=Poor Old Ugly Gladys Jones
TTITLE19=Chet's Tune
EXTD=
EXTT0=
EXTT1=
EXTT2=
EXTT3=
EXTT4=
EXTT5=
EXTT6=
EXTT7=
EXTT8=
EXTT9=
EXTT10=
EXTT11=
EXTT12=
EXTT13=
EXTT14=
EXTT15=
EXTT16=
EXTT17=
EXTT18=
EXTT19=
PLAYORDER=
